<?xml version="1.0" encoding="utf-8"?>
<!-- Generator: Adobe Illustrator 27.3.1, SVG Export Plug-In . SVG Version: 6.00 Build 0)  -->
<svg version="1.1" xmlns="http://www.w3.org/2000/svg" xmlns:xlink="http://www.w3.org/1999/xlink" x="0px" y="0px"
	 viewBox="0 0 261.32 353.68" style="enable-background:new 0 0 261.32 353.68;" xml:space="preserve">
<style type="text/css">
	.st0{fill:none;}
</style>
<g id="Layer_1">
	<g>
		<path class="st0" d="M92.72,322.22c0.03-0.1,0.1-0.19,0.12-0.28c0.06-0.3-0.2-0.78-0.47-0.91c-0.2-0.09-0.54,0.13-0.71,0.47
			c-0.48,0.9-0.25,1.68,0.36,2.46C92.42,323.39,92.54,322.79,92.72,322.22z"/>
		<path class="st0" d="M90.05,325.54c-1.61-0.53-1.61-0.53-2.72-0.27C88.35,325.36,89.09,325.75,90.05,325.54z"/>
		<path class="st0" d="M98.99,325.8C98.99,325.8,98.99,325.8,98.99,325.8c-0.44-0.03-0.89-0.05-1.45-0.08
			c0.16,0.08,0.19,0.12,0.23,0.12C98.17,325.83,98.58,325.81,98.99,325.8z"/>
		<path class="st0" d="M92.3,353.58c0.23,0.14,0.45,0.11,0.68,0.01C92.76,353.47,92.53,353.47,92.3,353.58z"/>
		<path class="st0" d="M113.83,123.5c-0.22,0.07-0.32,0.27-0.28,0.49c0.05,0.29,0.25,0.44,0.55,0.42c0.27-0.01,0.5-0.27,0.46-0.51
			C114.52,123.64,114.12,123.41,113.83,123.5z"/>
		<path class="st0" d="M96.47,170.14c0.36,0.03,0.74,0.03,1.02-0.25c0.06-0.06,0.11-0.2,0.09-0.27c-0.02-0.07-0.15-0.11-0.23-0.15
			c0,0-0.01,0-0.01,0c-0.4,0.09-0.65,0.14-0.9,0.21c-0.16,0.04-0.3,0.14-0.22,0.33C96.24,170.07,96.38,170.13,96.47,170.14z"/>
		<path class="st0" d="M80.13,269.47c0.51,0.05,0.9,0.53,1.61,0.47C81.18,269.44,80.68,269.36,80.13,269.47z"/>
		<path class="st0" d="M97.33,169.46C97.29,169.46,97.27,169.47,97.33,169.46L97.33,169.46z"/>
		<path class="st0" d="M108.29,124.17c-0.13-0.31-0.41-0.45-0.76-0.43c-0.36,0.02-0.7,0.29-0.76,0.66
			c-0.06,0.36-0.06,0.72-0.09,1.08c-0.06,0.47,0.16,0.79,0.59,0.97c0.19,0.08,0.38,0.16,0.58,0.2c0.4,0.09,0.85,0.25,1.14-0.15
			c0.2-0.28-0.07-0.58-0.17-0.87C108.64,125.14,108.49,124.64,108.29,124.17z"/>
		<path class="st0" d="M66.19,128.41c0.7,0.43,1.43,0.83,2.27,0.9c0.13,0.01,0.32-0.09,0.39-0.19c0.07-0.1,0.08-0.32,0.01-0.42
			c-0.38-0.6-0.79-1.19-1.19-1.78c-0.45,0.11-0.85,0.2-1.24,0.31c-0.26,0.07-0.48,0.19-0.51,0.5
			C65.9,127.99,65.97,128.27,66.19,128.41z"/>
		<path class="st0" d="M105.85,114.37c-0.09,0-0.21-0.02-0.28,0.02c-0.18,0.1-0.22,0.27-0.24,0.46c0.17-0.07,0.34-0.13,0.49-0.23
			C105.86,114.6,105.84,114.46,105.85,114.37z"/>
		<path class="st0" d="M73.9,129.47c0.07,0.06,0.19,0.07,0.29,0.1c0.7-0.04,2.03-0.4,2.55-0.7c0.43-0.24,0.56-0.57,0.46-1.05
			c-0.13-0.6-0.52-1.01-0.99-1.36c-0.51-0.39-0.92-0.32-1.09,0.25c-0.26,0.87-0.65,1.64-1.22,2.34
			C73.79,129.18,73.76,129.35,73.9,129.47z"/>
		<path class="st0" d="M44.42,137.51c0.2,0.07,0.4,0.01,0.5-0.21c0.08-0.44-0.53-1.08-0.92-0.96c-0.07,0.02-0.16,0.14-0.17,0.23
			C43.8,137.04,43.99,137.36,44.42,137.51z"/>
		<path class="st0" d="M73.77,126.81c0.27,0,0.55-0.27,0.6-0.57c-0.01-0.23-0.14-0.36-0.36-0.38c-0.27-0.01-0.48,0.08-0.56,0.37
			C73.38,126.49,73.56,126.81,73.77,126.81z"/>
		<path class="st0" d="M121.78,2.99c0.12,0.02,0.18-0.05,0.12-0.15c-0.03-0.06-0.13-0.1-0.2-0.14c-0.01,0.07-0.03,0.15-0.03,0.22
			C121.68,2.95,121.74,2.99,121.78,2.99z"/>
		<path class="st0" d="M116.68,5.1c0.22-0.01,0.41-0.08,0.52-0.28c0.05-0.08,0.07-0.2,0.04-0.29c-0.06-0.19-0.24-0.21-0.37-0.13
			c-0.17,0.1-0.3,0.26-0.43,0.41c-0.03,0.03-0.03,0.13-0.01,0.15C116.51,5.01,116.6,5.05,116.68,5.1z"/>
		<path class="st0" d="M7.6,228.57c0.54-0.42,0.95-0.89,1.04-1.68C7.68,227.7,7.68,227.7,7.6,228.57z"/>
		<path class="st0" d="M102.53,56.71c0.09-0.1,0.06-0.2-0.06-0.25c-0.26-0.09-0.52-0.06-0.74,0.1c-0.07,0.05-0.11,0.16-0.16,0.25
			c0.08,0.05,0.17,0.1,0.25,0.15C102.09,56.97,102.34,56.92,102.53,56.71z"/>
		<path class="st0" d="M80.99,291.52c0.44,0.15,0.9,0.28,1.34,0.43c0.57,0.2,0.97,0.56,1.19,1.15c0.37,1.03,0.76,2.05,1.63,2.79
			c0.04,0.03,0.08,0.08,0.09,0.12c0.45,1.8,2.05,2.56,3.33,3.57c1.47,1.16,3.22,1.92,4.82,2.89c0.04,0.03,0.09,0.05,0.14,0.07
			c0.43,0.18,0.72,0.03,0.81-0.4c0.1-0.47,0.05-0.94-0.04-1.4c-0.16-0.82-0.15-1.65-0.14-2.51c0.4,0.09,0.3,0.39,0.32,0.61
			c0.11,1.19,0.2,2.38,0.32,3.57c0.04,0.38,0.35,0.52,0.68,0.38c0.1-0.04,0.2-0.07,0.29-0.12c2.55-1.52,5.07-3.09,7.23-5.16
			c0.54-0.52,1.08-1.03,1.62-1.55c-10.51-3.34-20.57-7.12-29.77-11.34c1.66,2.04,3.33,4.09,4.99,6.13
			C80.14,291.13,80.54,291.37,80.99,291.52z M87.71,293.6c0.61,0.47,1.22,0.94,1.82,1.42c-0.04,0.09-0.09,0.18-0.13,0.28
			c-0.42-0.27-0.84-0.54-1.25-0.82c-0.25-0.18-0.49-0.37-0.72-0.58c-0.07-0.06-0.13-0.21-0.1-0.27
			C87.42,293.44,87.59,293.51,87.71,293.6z M87.15,294.65c0.08,0.08,0.19,0.13,0.21,0.21c0.04,0.12-0.05,0.19-0.16,0.13
			c-0.08-0.04-0.17-0.12-0.19-0.19C86.97,294.67,87.06,294.62,87.15,294.65z"/>
		<path class="st0" d="M65.84,59.99c0.19-0.01,0.13-0.21,0.14-0.35c-0.02-0.08-0.03-0.24-0.06-0.24c-0.18-0.02-0.26,0.11-0.27,0.26
			C65.63,59.8,65.66,59.99,65.84,59.99z"/>
		<path class="st0" d="M69.89,62.75c-0.44-0.32-0.91-0.47-1.6-0.51c0.36,0.39,0.62,0.38,0.87,0.4
			C69.4,62.67,69.64,62.71,69.89,62.75z"/>
		<path class="st0" d="M70.6,58.49c0.06-0.02,0.08-0.12,0.12-0.18c-0.07-0.15-0.19-0.23-0.34-0.19c-0.06,0.02-0.13,0.15-0.12,0.21
			C70.3,58.49,70.45,58.54,70.6,58.49z"/>
		<path class="st0" d="M76.93,56.35c0.05-0.07,0.15-0.15,0.14-0.22c-0.03-0.16-0.15-0.26-0.32-0.23c-0.06,0.01-0.14,0.15-0.13,0.22
			C76.64,56.29,76.76,56.37,76.93,56.35z"/>
		<path class="st0" d="M109.87,4.41c0.17,0.05,0.2-0.14,0.21-0.29c-0.04-0.24-0.17-0.35-0.41-0.25c-0.08,0.04-0.15,0.12-0.22,0.18
			C109.59,4.18,109.71,4.36,109.87,4.41z"/>
		<path class="st0" d="M134.58,106.36c0.04-0.16-0.08-0.29-0.23-0.27c-0.11,0.02-0.21,0.14-0.31,0.22c0.11,0.07,0.22,0.14,0.33,0.17
			C134.43,106.5,134.57,106.41,134.58,106.36z"/>
		<path class="st0" d="M137.17,205.85c0.07-0.02,0.13-0.14,0.16-0.22c0.04-0.12-0.03-0.19-0.15-0.19c-0.05,0.08-0.12,0.15-0.15,0.23
			C136.98,205.8,137.06,205.89,137.17,205.85z"/>
		<path class="st0" d="M133.22,206.22c-0.07,0.12-0.01,0.23,0.11,0.18c0.07-0.03,0.11-0.15,0.17-0.24
			c-0.02-0.04-0.04-0.09-0.06-0.13C133.36,206.1,133.26,206.14,133.22,206.22z"/>
		<path class="st0" d="M137.22,209.32c0.28-0.44,0.38-0.93,0.47-1.41c-0.03-0.07-0.05-0.15-0.08-0.15
			c-0.09-0.01-0.22-0.02-0.26,0.03c-0.33,0.41-0.52,0.88-0.53,1.4c0,0.08,0.07,0.21,0.14,0.24
			C137.04,209.45,137.18,209.39,137.22,209.32z"/>
		<path class="st0" d="M135.51,207.2c0-0.03-0.08-0.07-0.11-0.06c-0.04,0.01-0.09,0.08-0.08,0.11c0.08,0.24,0.16,0.48,0.25,0.72v0
			C135.56,207.71,135.54,207.45,135.51,207.2z"/>
		<path class="st0" d="M121.69,4.42c0.43,0.24,0.79,0.06,1.14-0.11c0.14-0.07,0.22-0.22,0.16-0.38c-0.06-0.16-0.21-0.23-0.36-0.19
			C122.25,3.85,121.9,4.01,121.69,4.42z"/>
		<path class="st0" d="M136.36,211.08c0.16-0.03,0.22-0.17,0.24-0.32c-0.07-0.06-0.14-0.17-0.2-0.16c-0.16,0.03-0.25,0.16-0.23,0.32
			C136.18,210.98,136.3,211.09,136.36,211.08z"/>
		<path class="st0" d="M91.61,234.14c0.12-0.23,0-0.66-0.18-0.67c-0.29-0.01-0.31,0.22-0.35,0.41c-0.07,0.4-0.49,0.67-0.43,1.23
			C91.09,234.84,91.41,234.55,91.61,234.14z"/>
		<path class="st0" d="M134.19,206.85c-0.06,0.12-0.05,0.27-0.06,0.4c0,0.01,0.1,0.04,0.12,0.03c0.22-0.15,0.32-0.36,0.31-0.62
			c-0.03-0.04-0.06-0.07-0.08-0.11C134.38,206.65,134.25,206.73,134.19,206.85z"/>
		<path d="M261.32,294.08c0-5.12,0-10.24,0-15.37c-0.21-0.08-0.29-0.27-0.4-0.45c-0.47-0.81-0.94-1.62-1.44-2.41
			c-1.28-2.02-2.6-4.02-3.87-6.05c-1.74-2.79-3.53-5.54-5.79-7.94c-3.61-3.83-7.23-7.65-11.35-10.95c-0.73-0.59-1.43-1.21-2.13-1.84
			c-0.97-0.88-2.1-1.54-3.25-2.14c-0.32-0.17-0.67-0.29-1.02-0.37c-1.21-0.29-2.43-0.59-3.65-0.83c-0.96-0.18-1.72-0.61-2.39-1.34
			c-1.45-1.57-3.01-3.03-4.78-4.25c-0.38-0.26-0.73-0.58-1.09-0.89c-1.46-1.27-3.03-2.38-4.71-3.33c-0.86-0.49-1.72-0.98-2.54-1.54
			c-2.95-2.04-5.88-4.12-8.83-6.18c-1.16-0.81-2.35-1.58-3.73-1.93c-1.08-0.27-1.75-0.85-1.99-1.93c-0.03-0.15-0.12-0.29-0.16-0.44
			c-0.44-1.45-1.48-2.49-2.51-3.52c-0.45-0.45-1.02-0.74-1.62-0.92c-0.85-0.25-1.71-0.48-2.57-0.64c-3.14-0.56-6.2-1.36-9.12-2.68
			c-0.95-0.43-1.92-0.81-2.88-1.21c-0.58-0.24-1.11-0.56-1.65-0.87c-1.87-1.08-3.01-1.32-4.62-0.21c-0.13,0.09-0.28,0.15-0.4,0.25
			c-1.83,1.46-3.78,2.77-5.43,4.45c-2.96,3.01-5.76,6.15-8.34,9.51c-3.3,4.3-6.62,8.57-9.52,13.15c-2.06,3.25-4.18,6.48-6.45,9.59
			c-2.49,3.41-5.07,6.74-7.61,10.11c-1.79,2.37-3.5,4.79-5.42,7.06c-1.45,1.71-2.84,3.46-4.28,5.17c-1.61,1.91-3.23,3.81-4.86,5.7
			c-1.43,1.65-2.85,3.32-4.33,4.93c-1.58,1.73-3.25,3.37-4.84,5.09c-2.28,2.47-4.71,4.8-7.15,7.12
			c25.49,8.09,53.64,13.56,78.58,16.28C210.61,315.22,239.9,304.64,261.32,294.08z"/>
		<path d="M39.19,261.17c8.58,8.91,21.03,16.73,35.65,23.45c-0.57-0.7-1.14-1.4-1.71-2.1c-1.61-1.98-2.87-4.2-4.3-6.3
			c-0.58-0.85-1.1-1.76-1.57-2.68c-0.42-0.84-0.94-1.56-1.63-2.22c-0.59-0.56-0.98-1.33-1.45-2.01c-0.05-0.08-0.08-0.21-0.05-0.3
			c0.18-0.56-0.15-0.9-0.52-1.2c-0.67-0.52-1.19-1.15-1.6-1.89c-0.65-1.17-1.36-2.3-2.01-3.48c-0.51-0.93-1.18-1.82-1.73-2.75
			c-0.75-1.25-1.6-2.43-2.42-3.63c-2.08-3.06-3.82-6.32-5.61-9.56c-2.42-4.37-4.89-8.72-7.36-13.07c-1.78-3.12-3.6-6.22-5.38-9.34
			c-1.5-2.63-2.66-5.42-3.81-8.2c-0.5-1.21-0.58-1.28-1.84-0.81c-1.76,0.65-3.49,1.37-5.23,2.06c-0.82,0.33-1.66,0.63-2.45,1.01
			c-1.83,0.89-3.71,1.65-5.72,2.05c-0.81,0.16-1.35,0.52-1.3,1.45c0.03,0.53-0.27,0.88-0.72,1.11c-0.32,0.17-0.64,0.35-0.98,0.47
			c-1.61,0.59-3.24,1.14-4.8,1.85c-0.38,0.17-0.78,0.31-1.18,0.38c-0.73,0.13-1.4,0.41-2.09,0.64c-1.94,0.66-3.58,1.89-5.39,2.8
			C1.31,229.25,0.65,229.62,0,230C13.41,238.78,28.07,249.63,39.19,261.17z M7.6,228.57c0.09-0.87,0.09-0.87,1.04-1.68
			C8.55,227.68,8.14,228.15,7.6,228.57z"/>
		<polygon points="98.99,325.8 98.99,325.8 98.99,325.8 		"/>
		<path d="M39.81,139.1c0.16,0.87,0.44,1.72,0.89,2.49c0.77,1.3,1.5,2.62,2.3,3.9c0.58,0.94,1.08,1.89,1.37,2.96
			c0.39,1.41,0.96,2.75,1.86,3.93c0.22,0.29,0.37,0.63,0.53,0.95c0.45,0.88,0.87,1.78,1.36,2.63c0.43,0.73,0.76,1.46,0.74,2.34
			c-0.01,0.45,0.15,0.92,0.29,1.36c0.36,1.07,1.06,1.91,1.95,2.57c0.88,0.65,1.42,1.48,1.71,2.53c0.61,2.16,1.45,4.24,2.28,6.32
			c1.76,4.4,4.28,8.33,7.49,11.8c0.74,0.8,1.56,1.54,2.35,2.29c0.52,0.49,0.81,1.06,0.87,1.77c0.11,1.19,0.29,2.38,0.39,3.57
			c0.08,0.98-0.01,1.97,0.14,2.96c0.06,0.4-0.05,0.83-0.11,1.24c-0.01,0.07-0.13,0.19-0.2,0.19c-0.08,0-0.21-0.1-0.23-0.17
			c-0.13-0.71-0.3-1.43-0.34-2.15c-0.04-0.68-0.37-1.14-0.88-1.68c-0.37,0.58-0.57,1.08-0.63,1.66c-0.11,0.98-0.35,1.94-0.63,2.89
			c-0.13,0.45-0.24,0.91-0.29,1.37c-0.23,2.21-1.03,4.21-2.18,6.09c-0.23,0.38-0.48,0.5-0.89,0.3c-0.3-0.15-0.47,0.03-0.6,0.29
			c-0.34,0.73-0.08,1.45,0.1,2.14c0.28,1.06,0.62,2.1,1,3.12c1.23,3.38,2.77,6.63,4.39,9.83c1.48,2.92,3.14,5.76,4.69,8.65
			c0.84,1.56,1.7,3.11,2.68,4.59c0.43,0.65,0.78,1.35,1.09,2.07c0.54,1.24,1.07,2.49,1.69,3.69c1.03,1.99,2.06,3.98,3.24,5.88
			c0.91,1.46,1.78,2.93,2.54,4.47c0.58,1.16,1.18,2.33,1.84,3.44c1.28,2.16,2.44,4.36,3.01,6.83c0.04,0.15,0.12,0.29,0.17,0.44
			c0.89,2.45,1.74,4.91,2.2,7.48c0.1,0.58,0.31,1.1,0.65,1.57c1.27,1.78,2.55,3.55,3.84,5.31c0.36,0.49,0.62,0.54,1.02,0.18
			c0.96-0.87,2.01-1.66,2.61-2.87c0.18-0.37,0.43-0.71,0.69-1.04c0.65-0.82,1.18-1.72,1.73-2.6c1.55-2.47,3-5,4.75-7.34
			c1.47-1.96,2.96-3.89,4.44-5.84c2.77-3.65,5.37-7.42,8.2-11.04c3.08-3.94,6.05-7.96,9.09-11.93c1.52-1.99,3.07-3.94,4.61-5.92
			c1.53-1.96,3.01-3.96,4.49-5.97c1.48-2.01,2.89-4.08,4.24-6.18c1.36-2.1,2.85-4.1,4.52-5.95c0.39-0.43,0.55-0.86,0.48-1.41l0,0
			c0,0,0,0,0.01,0c-0.37-0.42-0.67-0.87-0.82-1.43c-0.36-1.3-0.83-2.56-1.33-3.82c-0.46-1.15-0.69-2.39-1.39-3.45
			c-0.06-0.08-0.07-0.19-0.1-0.3c-0.46-2.03-1.29-3.94-1.93-5.91c-0.13-0.39-0.33-0.76-0.51-1.13c-0.1-0.19-0.41-0.18-0.52,0
			c-0.29,0.45-0.37,0.97-0.44,1.48c-0.32,2.39-1.17,4.62-2.13,6.81c-0.71,1.62-1.44,3.22-2.19,4.82c-0.18,0.4-0.28,0.76-0.14,1.19
			c0.1,0.29,0.17,0.61,0.16,0.91c-0.01,0.42,0.08,0.69,0.57,0.73c0.16,0.01,0.2,0.25,0.13,0.39c-0.21,0.47-0.45,0.93-0.69,1.39
			c-0.31,0.59-0.58,1.19-0.61,2.03c0.51-0.32,0.61-0.74,0.81-1.08c0.26-0.44,0.4-0.42,0.8-0.06c0.51,0.47,1.04,0.91,0.45,1.66
			c0.42-0.06,0.75-0.25,0.98-0.61c0.26-0.4,0.62-0.66,1.08-0.79c0,0,0,0,0-0.01c-0.09-0.24-0.17-0.48-0.25-0.72
			c-0.01-0.03,0.04-0.1,0.08-0.11c0.03-0.01,0.11,0.04,0.11,0.06c0.03,0.25,0.04,0.51,0.06,0.77v0c0,0,0,0,0,0c0,0,0,0,0,0
			c-0.53,0.83-0.91,1.93-0.97,2.81c0.38,0,0.32-0.65,0.87-0.58c-0.2,0.64-0.38,1.23-0.57,1.82c-0.09,0.3-0.21,0.62,0.01,0.89
			c0.26,0.32,0.35,0.62,0.15,1c-0.2,0.37-0.41,0.74-0.88,0.81c-0.26,0.04-0.5,0.09-0.73,0.25c-0.32,0.22-0.28,0.45,0.17,0.66
			c0.22,0.11,0.36,0.26,0.28,0.47c-0.29,0.79-0.7,1.5-1.37,2.05c-0.9,0.75-2.01,1.36-1.97,2.78c0,0.05-0.04,0.1-0.07,0.14
			c-0.53,0.64-0.94,1.41-1.7,1.8c-0.63,0.32-1.07,0.82-1.49,1.35c-0.68,0.85-1.19,1.84-2.23,2.36c-0.17,0.08-0.27,0.31-0.39,0.48
			c-0.19,0.25-0.37,0.54-0.69,0.6c-0.41,0.08-0.44,0.3-0.45,0.67c-0.01,0.44-0.33,0.97-0.7,0.86c-0.51-0.15-0.75,0.02-1.05,0.29
			c-0.24,0.21-0.29,0.42-0.03,0.64c0.17,0.15,0.27,0.31,0.18,0.54c-0.13,0.33-0.49,0.47-0.85,0.31c-0.75-0.34-0.95-0.28-1.03,0.45
			c-0.05,0.45-0.21,0.79-0.51,1.1c-0.29,0.29-0.64,0.56-0.85,0.91c-0.45,0.75-1,1.29-1.85,1.58c-0.63,0.21-1.01,0.7-0.99,1.43
			c0.02,0.5-0.25,0.88-0.56,1.25c-1.08,1.27-2.03,2.62-2.34,4.32c-0.08,0.43-0.37,0.74-0.68,1.02c-0.41,0.38-0.73,0.38-1.06-0.04
			c-0.19-0.24-0.36-0.51-0.53-0.77c-1.1-1.64-2.25-3.26-3.48-4.81c-0.45-0.57-0.91-1.14-1.32-1.74c-0.33-0.49,0.09-1.26,0.68-1.26
			c0.2,0,0.41,0.08,0.61,0.13c0.52,0.12,0.99-0.51,0.97-0.98c-0.01-0.15-0.03-0.33-0.11-0.45c-0.51-0.77-0.13-1.37,0.34-1.97
			c0.79-1.03,1.59-2.06,2.32-3.14c0.52-0.76,0.86-1.63,1.81-2.02c0.31-0.13,0.52-0.5,0.79-0.74c0.21-0.19,0.36-0.41,0.21-0.68
			c-0.34-0.65-0.12-1.19,0.22-1.76c0.24-0.4,0.37-0.86,0.55-1.29c0.19-0.43,0.37-0.89,0.78-1.15c0.81-0.51,1.23-1.22,1.39-2.16
			c0.08-0.48,0.38-0.89,0.94-0.91c0.77-0.03,0.98-0.49,0.94-1.14c-0.05-0.65,0.22-1.08,0.75-1.43c0.47-0.31,0.83-0.7,1.03-1.3
			c0.21-0.61,0.61-1.2,1.28-1.5c0.49-0.22,0.9-0.59,1.12-1.06c0.47-0.95,1.24-1.66,1.8-2.55c0.66-1.07,1.51-1.99,2.51-2.76
			c0.38-0.29,0.72-0.62,0.88-1.07c0.25-0.7,0.73-1.25,1.15-1.85c0.39-0.55,0.76-1.12,1.1-1.71c1.33-2.31,2.36-4.75,3.41-7.19
			c0.6-1.39,1.1-2.82,1.27-4.33c0.15-1.29,0.27-2.59,0.4-3.89c0.02-0.26,0.02-0.52,0-0.78c-0.05-0.58-0.33-0.95-0.91-1.12
			c-1.59-0.47-2-0.54-1.91,1.34c0.09,1.98,0.19,3.95,0.16,5.93c-0.01,0.68-0.07,1.34-0.2,2.01c-0.48,2.45-1.57,4.63-2.99,6.65
			c-1.16,1.66-2.38,3.29-3.76,4.79c-1.38,1.49-2.79,2.95-4.19,4.42c-0.61,0.64-1.27,1.23-1.67,2.05c-0.13,0.27-0.37,0.5-0.56,0.74
			c-1.06,1.36-2.43,2.42-3.61,3.67c-0.39,0.41-0.81,0.82-1.28,1.13c-0.53,0.35-1.01,0.72-1.41,1.21c-0.23,0.28-0.52,0.51-0.79,0.75
			c-1.11,0.95-2.36,1.69-3.52,2.56c-1.53,1.14-3.19,2.11-5.06,2.66c-0.81,0.24-1.61,0.42-2.45,0.43c-1.98,0.04-3.79-0.64-5.57-1.37
			c-0.71-0.29-1.38-0.71-2.08-1.04c-1.08-0.52-2.11-1.14-3.15-1.72c-0.63-0.35-1.07-0.87-1.18-1.57c-0.11-0.68-0.47-1.1-0.98-1.52
			c-0.68-0.55-0.72-1.02-0.24-1.77c0.19-0.3,0.41-0.64,0.71-0.81c0.8-0.46,1.32-1.16,1.83-1.89c0.24-0.34,0.56-0.62,0.86-0.9
			c0.39-0.36,0.8-0.57,1.4-0.54c0.98,0.06,1.23-0.24,1.53-1.17c0.18-0.56,0.12-1.12,0.13-1.69c0.61-0.55,0.16-0.88-0.25-1.22
			c-0.4-0.33-0.8-0.66-1.19-1c-0.91-0.78-0.8-1.8,0.29-2.2c1.38-0.51,2.55-1.33,3.68-2.23c1.22-0.97,2.36-2.08,3.84-2.65
			c1.26-0.49,2.47-1.09,3.69-1.68c1.13-0.54,2.28-1.01,3.37-1.61c0.64-0.36,1.27-0.69,1.99-0.86c1.18-0.28,2.25-0.8,3.2-1.56
			c0.44-0.35,0.94-0.66,1.46-0.89c1.01-0.46,1.89-1.1,2.72-1.81c1.38-1.19,2.74-2.4,4.26-3.42c0.64-0.43,1.19-1.01,1.77-1.53
			c0.06-0.06,0.11-0.23,0.08-0.28c-0.11-0.16-0.28-0.09-0.4,0c-1.98,1.53-4.01,2.99-6.22,4.17c-0.05,0.02-0.09,0.05-0.13,0.08
			c-1.85,1.38-3.93,2.35-5.97,3.39c-0.83,0.43-1.69,0.81-2.62,0.98c-0.35,0.06-0.69,0.23-1,0.41c-0.36,0.21-0.75,0.35-1.14,0.5
			c-1.95,0.75-3.97,1.23-6.05,1.53c-1.86,0.27-3.73,0.25-5.6,0.23c-0.41,0-0.82-0.14-1.21-0.27c-0.65-0.23-1.27-0.42-1.96-0.09
			c-0.38,0.18-0.82,0.03-1.23-0.05c-1.48-0.29-2.96-0.58-4.44-0.85c-0.42-0.08-0.8-0.23-1.14-0.49c-0.42-0.32-0.89-0.52-1.41-0.64
			c-0.3-0.07-0.64-0.14-0.87-0.32c-1.05-0.82-2.3-1.2-3.54-1.6c-0.57-0.18-1-0.52-1.35-1.01c-1.18-1.62-2.61-2.97-4.42-3.86
			c-0.88-0.43-1.5-1.05-1.94-1.94c-0.52-1.08-1.44-1.66-2.68-1.46c-1.45,0.24-2.52-0.4-3.48-1.36c-0.63-0.63-1.15-1.35-1.61-2.11
			c-0.28-0.45-0.59-0.85-0.99-1.19c-1.26-1.05-2.14-2.43-2.91-3.84c-0.75-1.36-1.44-2.79-2.02-4.22c-0.76-1.87-1.15-3.89-1.86-5.79
			c0.03-1.16-0.31-2.27-0.5-3.39c-0.22-1.28-0.26-2.59-0.48-3.87c-0.53-3.14-0.86-6.29-1.07-9.46c-0.05-0.78-0.06-1.56,0.03-2.34
			c0.08-0.67,0.12-1.36,0.04-2.02c-0.08-0.64-0.09-1.23,0.1-1.84c0.22-0.73,0.1-1.45-0.26-2.12c-0.34-0.64-0.67-1.29-1.03-1.93
			c-0.19-0.33-0.32-0.67-0.21-1.04c0.38-1.23,0.49-2.55,1.3-3.65c0.6-0.81,0.82-1.79,0.63-2.82c-0.1-0.51-0.04-1.03,0.06-1.55
			c0.15-0.71,0.25-1.44,0.21-2.17c-0.08-1.64,0.76-2.9,1.86-3.96c0.45-0.43,0.9-0.83,1.28-1.33c0.18-0.24,0.41-0.49,0.67-0.64
			c0.21-0.12,0.55-0.03,0.74-0.16c0.26-0.17-0.17-0.46-0.01-0.69c0.28-0.39,0.58-0.75,1.13-0.69c0.36,0.04,0.72,0.12,1.08,0.14
			c0.29,0.02,0.46-0.18,0.59-0.41c-0.1,0.01-0.2,0.05-0.29,0.03c-0.14-0.03-0.33-0.07-0.4-0.17c-0.12-0.17,0.07-0.27,0.2-0.34
			c0.47-0.23,0.95-0.35,1.5-0.35c0.88,0.01,1.77,0,2.64-0.14c1.66-0.26,3.3-0.32,4.94,0.1c0.15,0.04,0.3,0.09,0.46,0.11
			c0.83,0.08,1.67,0.27,2.48,0.19c1.67-0.16,3.32-0.13,4.97,0.06c0.74,0.08,1.46-0.03,2.15-0.27c0.5-0.17,0.73-0.74,0.4-1.14
			c-0.56-0.67-1.19-1.29-1.79-1.92c-0.06-0.07-0.19-0.1-0.29-0.11c-1.06-0.08-1.99-0.59-2.95-0.95c-1.44-0.54-2.89-0.81-4.41-0.81
			c-0.87,0-1.75,0.29-2.59-0.2c-0.11-0.07-0.31-0.01-0.46,0c-0.52,0.02-1.05,0.13-1.56,0.04c-0.54-0.1-0.98-0.54-1.58-0.6
			c-0.31-0.03-0.39-0.34-0.25-0.61c0.38-0.74,0.78-1.46,0.92-2.31c0.05-0.32,0.32-0.55,0.65-0.61c0.66-0.13,0.97-0.55,1.04-1.19
			c0.03-0.34,0.5-0.57,0.22-1.07c-0.59,0.3-1.08,0.08-1.5-0.4c-0.1-0.12-0.2-0.24-0.31-0.35c-0.21-0.2-0.45-0.26-0.7-0.07
			c-0.13,0.09-0.23,0.22-0.37,0.29c-0.46,0.23-0.8-0.05-1.11-0.33c-0.26-0.23-0.34-0.52-0.12-0.83c0.17-0.24,0.22-0.48,0-0.7
			c-0.54-0.52-0.69-1.17-0.57-1.87c0.1-0.57-0.09-0.95-0.45-1.39c-0.97-1.21-0.93-1.28,0.36-2.08c0.09-0.05,0.18-0.11,0.27-0.16
			c1.14-0.7,1.59-1.73,1.46-3.04c-0.02-0.21-0.06-0.41-0.07-0.62c-0.09-1.08,0.48-1.92,1.51-2.23c0.46-0.14,0.93-0.2,1.38,0
			c0.6,0.26,1,0.03,1.31-0.47c0.19-0.31,0.37-0.63,0.55-0.94c0.29-0.5,0.62-0.98,1.22-1.15c0.6-0.16,0.72-0.62,0.9-1.14
			c0.22-0.64,0.01-1.39,0.48-1.93c0.45-0.51,0.97-0.95,1.45-1.42c0.33-0.33,0.67-0.66,0.98-1.01c0.29-0.32,0.63-0.51,1.03-0.66
			c0.84-0.32,1.73-0.36,2.6-0.5c1.21-0.19,2.37-0.16,3.52,0.32c0.78,0.32,1.6,0.38,2.44,0.05c0.47-0.19,1.01-0.2,1.52-0.3
			c0.36-0.06,0.76-0.04,1.06-0.2c0.7-0.38,1.42-0.31,2.14-0.24c0.73,0.07,1.44,0.25,2-0.45c0.11-0.14,0.38-0.2,0.57-0.2
			c0.48-0.01,0.7-0.19,0.89-0.67c0.23-0.6,0.73-1.02,1.49-0.81c0.32,0.09,0.61-0.04,0.91-0.15c0.59-0.21,1.18-0.58,1.77-0.58
			c1.35,0.01,2.68-0.2,4.01-0.18c1.18,0.02,2.37,0.32,3.51,0.63c0.82,0.22,1.62,0.36,2.46,0.35c0.63-0.01,1.29,0,1.84,0.29
			c1.31,0.69,2.86,0.56,4.15,1.29c0.21,0.12,0.51,0.11,0.76,0.09c0.68-0.06,1.35,0.03,2.02,0.09c1.44,0.14,2.89,0.38,4.32-0.17
			c0.4-0.16,0.83-0.06,1.21,0.15c2.36,1.31,4.89,2.37,6.55,4.66c0.09,0.12,0.23,0.21,0.35,0.31c0.77,0.67,1.24,1.53,1.59,2.46
			c0.2,0.53,0.28,1.12,0.54,1.62c0.4,0.75,0.23,1.66,0.7,2.37c0.39,0.59,0.52,1.24,0.57,1.92c0.03,0.36,0.06,0.73,0.13,1.09
			c0.28,1.47,0.29,3,1.1,4.34c0.25,0.42,0.23,0.91,0.17,1.37c-0.04,0.32-0.04,0.63,0.18,0.89c0.63,0.75,1.26,1.5,2.24,1.83
			c0-0.01-0.01-0.02-0.01-0.03c0.01,0.01,0.03,0.02,0.04,0.03c0.1-0.08,0.2-0.2,0.31-0.22c0.15-0.03,0.26,0.11,0.23,0.27
			c-0.01,0.06-0.15,0.14-0.21,0.13c-0.12-0.03-0.22-0.11-0.33-0.17c-0.01,0-0.01,0.01-0.02,0.01c-0.01,0-0.01-0.01-0.02-0.01
			c0.13,0.38,0.2,0.81,0.43,1.12c0.54,0.73,0.85,1.54,1.03,2.42c0.11,0.52,0.32,1,0.72,1.36c0.42,0.37,0.56,0.85,0.64,1.38
			c0.17,1.13,0.39,2.25,0.55,3.38c0.05,0.37,0.12,0.72,0.29,1.04c0.64,1.17,0.55,2.54,1.05,3.74c0.07,0.17,0.01,0.42-0.05,0.61
			c-0.11,0.36,0.24,0.57,0.25,0.86c0.01,0.32-0.28,0.61,0.04,0.97c0.28,0.32,0.17,0.8,0.2,1.21c0.02,0.36-0.07,0.76,0.05,1.08
			c0.46,1.24,0.4,2.55,0.55,3.83c0.02,0.15,0.08,0.29,0.36,0.28c0.19-0.83,0.15-1.77,0.62-2.51c0.68-1.07,0.84-2.18,0.68-3.4
			c-0.1-0.76,0.15-1.56-0.28-2.29c-0.09-0.16-0.06-0.4-0.04-0.6c0.14-1.5,0.3-3,0.45-4.5c0.06-0.57,0.24-1.15,0.18-1.7
			c-0.19-1.72,0.09-3.43,0.12-5.14c0.01-0.47,0.04-0.95-0.07-1.39c-0.11-0.47-0.09-0.92-0.09-1.39c-0.02-1.55,0.34-3.07,0.14-4.64
			c-0.11-0.86-0.18-1.73,0.01-2.63c0.14-0.68,0.03-1.48-0.18-2.15c-0.24-0.77-0.17-1.51-0.22-2.27c-0.05-0.8,0.1-1.67-0.46-2.39
			c-0.17-0.21-0.26-0.48-0.07-0.72c0.38-0.45,0.34-0.93,0.2-1.46c-0.26-0.95,0.06-1.99-0.39-2.92c-0.03-0.07,0.01-0.23,0.07-0.29
			c0.22-0.23,0.17-0.44,0.05-0.7c-0.48-1.07-0.41-2.3-1.08-3.33c-0.16-0.25-0.05-0.73,0.05-1.06c0.17-0.55,0.04-0.99-0.21-1.48
			c-0.24-0.45-0.58-1.01-0.5-1.44c0.16-0.85-0.05-1.65-0.01-2.47c0.07-1.38-0.35-2.68-0.78-3.93c-0.37-1.07-1.13-1.97-1.99-2.75
			c-0.31-0.28-0.59-0.58-0.88-0.88c-1.25-1.32-2.12-2.94-3.4-4.25c-0.56-0.57-1.16-1.17-1.5-1.95c-0.37-0.86-1.45-0.74-2.03-1.36
			c-0.1-0.11-0.24-0.2-0.36-0.29c-0.44-0.37-0.91-0.69-1.47-0.86c-0.73-0.21-1.34-0.66-1.72-1.28c-0.57-0.9-1.36-1.39-2.34-1.67
			c-0.4-0.12-0.78-0.28-1.17-0.42c-1.07-0.4-2.17-0.73-2.99-1.6c-0.39-0.42-0.94-0.64-1.49-0.83c-0.24-0.08-0.54-0.1-0.68-0.33
			c-0.69-1.11-1.94-1.31-2.98-1.86c-0.38-0.2-0.77-0.21-1.2-0.08c-0.64,0.19-1.32,0.3-1.98,0.38c-0.56,0.07-1.03-0.1-1.2-0.73
			c-0.04-0.13-0.11-0.25-0.17-0.38c-0.46-0.36-0.99-0.58-1.56-0.47c-1.27,0.23-2.56,0.09-3.84,0.21c-0.78,0.08-1.39-0.13-1.89-0.7
			c0,0,0,0,0,0c-0.59,0.07-0.94-0.63-1.6-0.48c-0.41,0.09-0.54-0.11-0.5-0.51c0.04-0.4,0.13-0.79,0.19-1.17
			c-0.09-0.04-0.14-0.1-0.17-0.09c-1.04,0.31-2.07,0.63-3.11,0.96c-0.2,0.06-0.48,0.2-0.53-0.05c-0.13-0.69-0.48-0.53-0.9-0.33
			c-0.24,0.11-0.49,0.17-0.73,0.27c-0.33,0.15-0.48,0.08-0.45-0.3c0.01-0.1,0.01-0.25-0.04-0.28c-0.34-0.19-0.55-0.34-0.01-0.54
			c0.66-0.24,1.09-0.67,1.25-1.58c-1,0.57-1.86,1.03-2.4,1.87c-0.26,0.41-0.61,0.93-1,0.88c-0.65-0.07-0.77,0.3-1.04,0.69
			c-0.45,0.64-0.84,1.3-1.14,2.03c-0.27,0.66-0.72,1.26-1.11,1.87c-0.22,0.34-0.73,0.25-0.87-0.15c-0.12-0.34-0.21-0.7-0.25-1.05
			c-0.03-0.27-0.01-0.59-0.36-0.54c-0.32,0.05-0.28,0.39-0.26,0.65c0.02,0.31,0.11,0.62-0.06,0.92c-0.05,0.01-0.11,0.04-0.15,0.03
			c-0.15-0.03-0.35-0.02-0.43-0.12c-0.73-0.88-1.8-0.94-2.8-1.17c-0.18-0.04-0.31,0.09-0.25,0.26c0.11,0.32,0.08,0.57-0.3,0.39
			c-0.61-0.28-1.23-0.55-1.64-1.14c-0.39-0.55-1.05-0.82-1.46-1.38c0.02,0.28,0.1,0.51,0.24,0.7c0.28,0.38,0.51,0.78,0.71,1.2
			c0.23,0.49,0.35,0.86-0.29,1.1c-0.09,0.03-0.17,0.29-0.13,0.4c0.13,0.36-0.01,0.51-0.33,0.44c-0.85-0.18-1.65-0.64-2.57-0.38
			c-0.13,0.04-0.34-0.2-0.51-0.32c-0.31-0.22-0.48-0.06-0.61,0.21c-0.07,0.14-0.2,0.32-0.16,0.43c0.21,0.6-0.18,0.8-0.58,1.1
			c-0.54,0.4-0.45,0.18-0.55-0.3c-0.13-0.61-0.84-0.68-1.18-0.2c-0.03,0.04-0.05,0.09-0.06,0.14c-0.15,0.47-0.35,0.71-0.89,0.4
			c-0.45-0.26-1.03,0.02-1.52-0.27c-0.19-0.12-0.53-0.25-0.6,0.15c-0.04,0.22,0.22,0.32,0.43,0.38c0.1,0.03,0.2,0.05,0.3,0.09
			c0.04,0.02,0.09,0.1,0.08,0.11c-0.05,0.08-0.12,0.2-0.18,0.2c-0.2-0.01-0.41-0.08-0.61-0.12c-0.41-0.08-0.81-0.17-1.23-0.22
			c-0.47-0.05-0.57,0.56-1.03,0.61c-0.42,0.05-0.45,0.32-0.24,0.67c0.09,0.15-0.06,0.3-0.21,0.35c-0.44,0.14-0.87,0.34-1.35,0.33
			c-0.32,0-0.65,0.09-0.82,0.38c-0.49,0.81-1.27,1.36-1.82,2.11c-0.52,0.71-1.46,0.97-1.85,1.81c-0.03,0.07-0.18,0.1-0.28,0.12
			c-0.53,0.09-0.93,0.48-1.39,0.66c-0.91,0.36-1.62,1.09-2.6,1.28c-0.34,0.07-0.53,0.33-0.51,0.68c0.01,0.3-0.07,0.47-0.4,0.53
			c-0.46,0.09-0.92,0.19-1.35,0.36c-0.47,0.19-0.84,0.47-1.18,0.92c-0.5,0.65-1.51,0.83-1.86,1.7c-0.01,0.03-0.1,0.04-0.14,0.03
			c-0.81-0.15-1.22,0.45-1.66,0.93c-0.26,0.28-0.51,0.53-0.89,0.56c-0.66,0.04-1.15,0.43-1.69,0.74c-0.4,0.23-0.64,0.54-0.71,0.96
			c-0.06,0.4,0,0.83-0.45,1.06c-0.05,0.03-0.09,0.23-0.05,0.27c0.61,0.62,0.19,1.08-0.15,1.64c-0.24,0.39-0.4,0.82-0.74,1.17
			c-0.18,0.18-0.25,0.47,0.14,0.59c0.24,0.07,0.32,0.27,0.23,0.48c-0.1,0.24-0.19,0.55-0.38,0.66c-0.52,0.29-0.64,0.78-0.78,1.28
			c-0.1,0.35-0.23,0.7-0.39,1.02c-0.35,0.72-0.49,1.43-0.2,2.23c0.15,0.42,0.18,0.92-0.3,1.27c-0.37,0.28-0.41,0.72-0.33,1.14
			c0.11,0.57,0.03,1.09-0.12,1.66c-0.27,1.08-0.53,2.21-0.17,3.35c0.13,0.43,0.3,0.87,0,1.35c-0.12,0.19-0.06,0.51-0.04,0.76
			c0.05,0.58,0.06,1.14-0.17,1.69c-0.13,0.3-0.11,0.61-0.06,0.92c0.11,0.68,0,1.34-0.11,2.01c-0.09,0.55-0.16,1.09,0.06,1.68
			c0.28,0.73,0.07,1.55,0.19,2.31c0.12,0.75,0.46,1.47,0.67,2.21c0.05,0.19-0.03,0.42-0.02,0.62c0.14,1.66,0.13,3.35,0.48,4.96
			c0.28,1.27,0.32,2.56,0.53,3.83c0.09,0.56,0.33,1.09,0.3,1.67c-0.1,1.98,0.4,3.91,0.39,5.88c0,0.52-0.05,1.06,0.06,1.56
			c0.44,1.88,0.19,3.82,0.53,5.72c0.23,1.26,0.23,2.58,0.48,3.86c0.12,0.65-0.15,0.98-0.77,1.12c-0.47,0.11-0.93,0.1-1.4,0.03
			c-0.67-0.1-1.33-0.24-2-0.33c-1.08-0.14-2.17-0.29-3.26-0.04c-0.62,0.14-0.9,0.49-0.86,1.11c0.03,0.47,0.1,0.93,0.22,1.39
			C39.08,135.53,39.49,137.3,39.81,139.1z M137.17,205.44c0.12,0,0.19,0.07,0.15,0.19c-0.03,0.09-0.09,0.2-0.16,0.22
			c-0.11,0.04-0.18-0.06-0.14-0.18C137.05,205.59,137.12,205.52,137.17,205.44z M137.36,207.78c0.04-0.05,0.17-0.03,0.26-0.03
			c0.03,0,0.04,0.08,0.08,0.15c-0.09,0.48-0.19,0.98-0.47,1.41c-0.04,0.07-0.19,0.12-0.25,0.1c-0.07-0.02-0.14-0.15-0.14-0.24
			C136.84,208.66,137.03,208.19,137.36,207.78z M133.32,206.4c-0.12,0.04-0.18-0.06-0.11-0.18c0.05-0.08,0.14-0.12,0.21-0.18
			c0.02,0.04,0.04,0.09,0.06,0.13C133.44,206.25,133.4,206.38,133.32,206.4z M134.25,207.28c-0.03,0.02-0.12-0.02-0.12-0.03
			c0.01-0.14,0-0.29,0.06-0.4c0.06-0.12,0.19-0.2,0.29-0.3c0.03,0.04,0.06,0.07,0.08,0.11
			C134.57,206.92,134.48,207.13,134.25,207.28z M136.39,210.59c0.06-0.01,0.13,0.1,0.2,0.16c-0.02,0.16-0.08,0.3-0.24,0.32
			c-0.05,0.01-0.18-0.1-0.19-0.16C136.14,210.75,136.24,210.62,136.39,210.59z M91.09,233.88c0.03-0.19,0.05-0.42,0.35-0.41
			c0.19,0.01,0.3,0.43,0.18,0.67c-0.21,0.41-0.53,0.7-0.96,0.97C90.6,234.55,91.02,234.29,91.09,233.88z M108.85,54.22
			c0.06,0.16-0.02,0.31-0.16,0.38c-0.35,0.18-0.71,0.35-1.14,0.11c0.21-0.41,0.56-0.57,0.94-0.68
			C108.64,53.98,108.79,54.05,108.85,54.22z M107.56,52.98c0.07,0.05,0.16,0.08,0.2,0.14c0.06,0.1-0.01,0.17-0.12,0.15
			c-0.04-0.01-0.1-0.05-0.1-0.08C107.53,53.13,107.55,53.05,107.56,52.98z M102.3,55.09c0.14-0.14,0.27-0.31,0.43-0.41
			c0.13-0.08,0.31-0.05,0.37,0.13c0.03,0.09,0,0.21-0.04,0.29c-0.11,0.2-0.3,0.26-0.52,0.28c-0.08-0.05-0.17-0.09-0.25-0.15
			C102.27,55.21,102.27,55.12,102.3,55.09z M101.73,56.56c0.22-0.16,0.48-0.19,0.74-0.1c0.13,0.04,0.15,0.15,0.06,0.25
			c-0.19,0.21-0.44,0.27-0.71,0.24c-0.08-0.05-0.17-0.1-0.25-0.15C101.62,56.72,101.65,56.61,101.73,56.56z M95.53,54.15
			c0.24-0.1,0.37,0.01,0.41,0.25c-0.01,0.15-0.05,0.34-0.21,0.29c-0.16-0.05-0.28-0.23-0.42-0.36
			C95.38,54.27,95.44,54.19,95.53,54.15z M76.76,55.9c0.16-0.03,0.29,0.07,0.32,0.23c0.01,0.06-0.09,0.14-0.14,0.22
			c-0.18,0.02-0.3-0.06-0.31-0.23C76.62,56.05,76.7,55.91,76.76,55.9z M70.38,58.12c0.15-0.04,0.27,0.04,0.34,0.19
			c-0.04,0.06-0.06,0.16-0.12,0.18c-0.14,0.04-0.29,0-0.33-0.16C70.25,58.27,70.32,58.14,70.38,58.12z M69.89,62.75
			c-0.24-0.04-0.49-0.08-0.73-0.1c-0.25-0.02-0.51-0.01-0.87-0.4C68.98,62.28,69.44,62.42,69.89,62.75z M65.65,59.66
			c0.01-0.15,0.09-0.29,0.27-0.26c0.03,0,0.04,0.16,0.06,0.24c-0.01,0.13,0.05,0.34-0.14,0.35C65.66,59.99,65.63,59.8,65.65,59.66z
			 M43.99,136.34c0.4-0.12,1,0.53,0.92,0.96c-0.11,0.22-0.3,0.28-0.5,0.21c-0.43-0.15-0.62-0.47-0.59-0.95
			C43.83,136.48,43.92,136.36,43.99,136.34z"/>
		<path d="M61,119.34c0,0.01-0.01,0.01-0.01,0.02c0.01,0,0.01,0,0.02,0L61,119.34z"/>
		<path d="M133.51,209.39c0,0,0-0.01,0.01-0.01c-0.01,0-0.02,0-0.02,0.01L133.51,209.39z"/>
		<polygon points="115.58,0.37 115.58,0.37 115.58,0.37 		"/>
		<path d="M122.87,1.31c0.01,0.02,0.02,0.03,0.02,0.05c0.01,0.01,0.01,0.01,0.02,0.01C122.91,1.37,122.87,1.31,122.87,1.31z"/>
		<path d="M134.04,106.31c-0.01-0.01-0.03-0.02-0.04-0.03c0,0.01,0.01,0.02,0.01,0.03c0.01,0,0.01,0.01,0.02,0.01
			C134.03,106.32,134.04,106.31,134.04,106.31z"/>
		<polygon points="135.58,207.96 135.57,207.97 135.58,207.97 		"/>
		<path d="M60.8,128.46c-0.5,0.28-0.99,0.57-1.51,0.81c-0.42,0.2-0.62,0.5-0.71,0.95c-0.2,1-0.11,1.14,0.85,1.04
			c0.47-0.05,0.93-0.08,1.4,0.02c0.68,0.15,1.35,0.07,1.99-0.18c0.49-0.18,1-0.31,1.53-0.27c1.35,0.11,2.7,0.03,4.05,0.17
			c1.5,0.16,3.03,0.08,4.47-0.46c2.05-0.77,4.08-1.17,6.17-0.13c0.32,0.16,0.69,0.23,1.05,0.3c0.25,0.05,0.52,0.04,0.77,0
			c0.45-0.06,0.73-0.48,0.58-0.92c-0.13-0.39-0.34-0.76-0.51-1.13c-0.15-0.31-0.56-0.52-0.4-0.94c0.08-0.22,0.55,0,1.03,0.48
			c0.49,0.49,0.84,1.05,1.02,1.72c0.42,1.52,0.53,3.08,0.32,4.63c-0.1,0.73-0.17,1.45-0.08,2.17c0.12,0.92-0.07,1.74-0.59,2.52
			c-0.26,0.38-0.42,0.84-0.58,1.28c-0.32,0.89-0.56,1.77-0.26,2.74c0.26,0.84-0.14,1.56-0.76,2.08c-1.68,1.4-2.34,3.4-3.21,5.29
			c-0.11,0.25-0.08,0.54,0.17,0.69c0.27,0.17,0.5-0.01,0.69-0.19c0.92-0.85,1.84-1.69,2.74-2.56c0.96-0.94,2.06-1.37,3.39-0.97
			c0.36,0.11,0.6,0.01,0.82-0.26c0.13-0.16,0.27-0.32,0.43-0.45c0.78-0.64,0.94-1.47,0.74-2.4c-0.16-0.76-0.35-1.52-0.58-2.27
			c-0.16-0.51-0.21-1-0.08-1.53c0.2-0.86,0.2-1.75,0.24-2.64c0.06-1.44-0.06-2.92,0.66-4.27c0.2-0.38,0.1-0.82,0.04-1.23
			c-0.12-0.83-0.11-1.65,0.11-2.48c0.21-0.77,0.09-1.55-0.02-2.33c-0.14-0.96-0.37-1.85-1.39-2.27c-0.19-0.08-0.35-0.23-0.49-0.38
			c-0.85-0.86-1.99-1.11-3.08-1.44c-0.63-0.19-1.14,0.12-1.32,0.77c-0.14,0.49-0.17,1.01-0.27,1.65c-1.53-0.56-2.93-1.1-4.35-1.59
			c-1.04-0.36-2.11-0.57-3.22-0.56c-1.04,0.01-2.08,0.01-3.12,0.01c-2.74,0.01-5.2,0.91-7.49,2.35c-0.26,0.16-0.49,0.39-0.7,0.61
			c-0.15,0.15-0.25,0.38-0.13,0.57C61.52,128.01,61.19,128.24,60.8,128.46z M76.2,126.47c0.47,0.35,0.86,0.76,0.99,1.36
			c0.1,0.48-0.03,0.81-0.46,1.05c-0.52,0.29-1.85,0.65-2.55,0.7c-0.1-0.03-0.21-0.04-0.29-0.1c-0.14-0.12-0.11-0.29-0.01-0.41
			c0.57-0.7,0.97-1.47,1.22-2.34C75.28,126.15,75.69,126.08,76.2,126.47z M73.44,126.24c0.07-0.29,0.29-0.38,0.56-0.37
			c0.23,0.01,0.35,0.14,0.36,0.38c-0.04,0.29-0.33,0.57-0.6,0.57C73.56,126.81,73.38,126.49,73.44,126.24z M66.43,127.22
			c0.39-0.11,0.79-0.2,1.24-0.31c0.4,0.59,0.81,1.18,1.19,1.78c0.07,0.1,0.05,0.32-0.01,0.42c-0.07,0.11-0.26,0.2-0.39,0.19
			c-0.84-0.07-1.57-0.47-2.27-0.9c-0.22-0.14-0.3-0.42-0.27-0.69C65.95,127.42,66.17,127.29,66.43,127.22z"/>
		<path d="M83.54,265.94c0,0.01,0.01,0.01,0.01,0.02c0.01,0,0.02,0,0.03,0.01C83.58,265.96,83.54,265.94,83.54,265.94z"/>
		<path d="M80.11,269.46C80.11,269.46,80.11,269.47,80.11,269.46c0.01,0.01,0.02,0.01,0.03,0.01
			C80.13,269.47,80.12,269.46,80.11,269.46z"/>
		<path d="M93.04,278.22c0.23,0.1,0.29-0.09,0.26-0.23c-0.3-1.33-0.8-2.5-2.38-2.72c-0.32-0.05-0.64-0.16-0.75-0.48
			c-0.26-0.73-0.82-1.19-1.38-1.65c-0.38-0.31-0.56-0.67-0.66-1.18c-0.2-1.11-0.54-2.2-0.83-3.3c-0.01-0.05-0.03-0.1-0.06-0.14
			c-0.13-0.22-0.34-0.26-0.52-0.11c-0.19,0.17-0.31,0.4-0.49,0.59c-0.06,0.06-0.19,0.12-0.27,0.09c-0.08-0.02-0.19-0.15-0.18-0.22
			c0.12-0.91-0.38-1.45-1.09-1.9c-0.43-0.27-0.85-0.58-1.15-1.01c-0.34-0.07-0.67-0.16-1.02-0.2c-0.47-0.07-0.64,0.06-0.82,0.5
			c-0.1,0.24-0.25,0.5-0.12,0.73c0.34,0.63-0.05,1.06-0.49,1.26c-0.6,0.26-0.79,0.73-1.03,1.23c0.01,0,0.02,0,0.03,0
			c0,0,0-0.01,0-0.01c0.01,0,0.02,0.01,0.03,0.01c0.54-0.1,1.04-0.03,1.61,0.47c-0.71,0.06-1.1-0.42-1.61-0.47
			c-0.01,0-0.02,0-0.03,0c0.02,0.47,0.12,0.93-0.03,1.39c-0.09,0.28,0.02,0.49,0.23,0.69c0.51,0.49,0.49,0.5,0.08,0.96
			c-0.47,0.51-0.86,1.05-0.5,1.8c0.04,0.09,0.1,0.23,0.06,0.3c-0.49,0.77,0.09,1.5,0.12,2.25c0.02,0.48,0.47,0.92-0.24,1.27
			c-0.21,0.11-0.06,0.37,0.09,0.53c0.15,0.15,0.34,0.36,0.18,0.53c-0.59,0.63-0.18,0.98,0.29,1.39c0.55,0.48,1.1,1.04,1.23,1.75
			c0.14,0.73,0.39,1.25,1.06,1.59c0.43,0.22,0.71,0.6,0.69,1.14c-0.03,0.62,0.36,0.94,0.87,1.16c0.52,0.23,1.07,0.42,1.59,0.65
			c0.63,0.29,1.26,0.46,1.96,0.25c0.59-0.18,1.11,0.03,1.65,0.29c0.51,0.25,1.05,0.44,1.6,0.62c0.21,0.07,0.42-0.04,0.47-0.28
			c0.18-0.86,0.29-1.74,0.52-2.58c0.22-0.81,0.34-1.6,0.22-2.45c-0.13-0.92-0.15-1.86-0.17-2.8c-0.01-0.41,0.07-0.83,0.17-1.23
			C92.34,278.27,92.56,278,93.04,278.22z"/>
		<path d="M97.33,169.46C97.33,169.46,97.33,169.46,97.33,169.46c0.01,0,0.02,0,0.02,0C97.34,169.46,97.33,169.46,97.33,169.46z"/>
		<path d="M98.89,170.98c1.13-0.15,2.27-0.34,3.4-0.31c0.98,0.03,1.98-0.2,2.95,0.16c0.36-0.06,0.73-0.08,1.08-0.18
			c0.8-0.24,1.61-0.39,2.45-0.4c0.83-0.01,1.76-0.91,1.95-1.77c0.14-0.63-0.31-1.14-0.98-1.05c-0.3,0.04-0.6,0.16-0.89,0.27
			c-1.1,0.44-2.23,0.48-3.38,0.26c-0.87-0.17-1.74-0.32-2.61-0.46c-0.88-0.15-1.76-0.2-2.65-0.1c-1.02,0.11-2.03,0.46-3.07,0.17
			c-0.09-0.03-0.21,0-0.31,0.03c-0.99,0.31-2.04,0.4-2.99,0.86c-1.12,0.53-2.28,0.67-3.47,0.15c-0.37-0.16-0.8-0.23-1.21-0.28
			c-1.55-0.19-3.1-0.36-4.65-0.54c-0.83-0.09-1.67-0.11-2.49,0.05c-0.82,0.16-1.64,0.3-2.44,0.53c-1.2,0.34-2.36,0.37-3.5-0.21
			c-0.14-0.07-0.29-0.12-0.44-0.15c-0.84-0.18-1.56,0.41-1.58,1.27c-0.01,0.37,0.06,0.73,0.25,1.05c0.34,0.58,0.64,1.18,0.84,1.84
			c0.19,0.66,0.65,1.03,1.37,1.08c1.79,0.11,3.29,0.9,4.62,2.05c0.16,0.14,0.32,0.26,0.5,0.37c0.18,0.11,0.39,0.22,0.59,0.1
			c0.25-0.14,0.1-0.35,0.03-0.54c-0.27-0.83-0.24-0.79,0.51-1.31c0.79-0.55,1.59-0.94,2.57-0.96c0.35-0.01,0.7-0.2,1.05-0.3
			c0.6-0.16,1.2-0.4,1.82-0.45c1.92-0.15,3.82-0.47,5.73-0.65C95.59,171.41,97.24,171.2,98.89,170.98z M96.44,169.68
			c0.25-0.07,0.5-0.12,0.9-0.21c0,0,0,0-0.01,0c-0.06,0.01-0.03-0.01,0,0c0.01,0,0.01,0,0.02,0c-0.01,0-0.01,0-0.02,0
			c0,0,0.01,0,0.01,0c0.09,0.04,0.21,0.08,0.23,0.15c0.02,0.07-0.02,0.21-0.09,0.27c-0.28,0.28-0.66,0.28-1.02,0.25
			c-0.09-0.01-0.23-0.07-0.26-0.14C96.14,169.82,96.28,169.72,96.44,169.68z"/>
		<path d="M117.19,126.43c0.58-0.15,0.79-0.17,0.97-0.25c1.08-0.51,2.2-0.59,3.35-0.28c0.15,0.04,0.31,0.09,0.46,0.06
			c0.13-0.03,0.3-0.13,0.35-0.25c0.05-0.11,0.03-0.31-0.04-0.43c-0.07-0.13-0.21-0.24-0.34-0.31c-1.76-1.02-3.52-2.03-5.42-2.76
			c-0.83-0.32-1.7-0.52-2.59-0.54c-0.88-0.02-1.77,0.1-2.56-0.45c-0.11-0.08-0.3-0.07-0.46-0.06c-1.79,0.11-3.54,0.48-5.03,1.49
			c-1.34,0.9-2.38,2.16-3.43,3.39c-0.29,0.34-0.2,0.58,0.25,0.87c0.19,0.12,0.53,0.04,0.54,0.45c-0.51,0.08-1.02,0.15-1.52,0.24
			c-0.07,0.01-0.14,0.15-0.15,0.24c-0.01,0.09,0.03,0.2,0.09,0.27c0.06,0.07,0.17,0.14,0.27,0.14c1.76,0.07,3.53,0.33,5.29-0.03
			c0.56-0.12,1.12-0.19,1.7-0.08c0.94,0.18,1.86,0.05,2.77-0.23c0.44-0.14,0.91-0.23,1.37-0.3c0.64-0.09,1.09-0.28,1.46-0.94
			c0.42-0.77,0.96-1.47,1.21-2.34c0.07-0.23,0.26-0.45,0.43-0.63c0.09-0.1,0.27-0.19,0.4-0.18c0.7,0.03,1.13,0.47,1.45,1.04
			c0.26,0.44,0.05,0.79-0.25,1.12C117.64,125.82,117.52,125.99,117.19,126.43z M108.99,126.49c-0.29,0.4-0.74,0.24-1.14,0.15
			c-0.2-0.04-0.39-0.12-0.58-0.2c-0.42-0.18-0.65-0.49-0.59-0.97c0.03-0.36,0.04-0.72,0.09-1.08c0.06-0.37,0.39-0.64,0.76-0.66
			c0.34-0.02,0.62,0.13,0.76,0.43c0.2,0.47,0.36,0.97,0.53,1.45C108.92,125.9,109.2,126.2,108.99,126.49z M114.1,124.41
			c-0.3,0.02-0.5-0.14-0.55-0.42c-0.04-0.22,0.06-0.41,0.28-0.49c0.29-0.1,0.69,0.13,0.73,0.4
			C114.6,124.14,114.37,124.4,114.1,124.41z"/>
		<path d="M56.85,218.92c0.29,0.43,0.91,0.46,1.17,0.01c0.62-1.08,1.28-2.15,1.77-3.28c0.39-0.89,0.75-1.83,0.82-2.84
			c0.01-0.21-0.07-0.42-0.26-0.54c-0.2-0.12-0.41-0.07-0.58,0.06c-0.2,0.16-0.37,0.36-0.58,0.52c-0.42,0.33-0.77,0.24-0.95-0.3
			c-0.22-0.63-0.37-1.29-0.55-1.92c-0.07-0.03-0.12-0.07-0.16-0.06c-0.93,0.34-1.85,0.7-2.81,0.06c-0.09-0.06-0.33-0.02-0.43,0.07
			c-0.57,0.47-1.34,0.82-1.03,1.81c0.07,0.24-0.02,0.53,0.05,0.77c0.26,0.88,0.35,1.87,1.22,2.44c0.99,0.65,1.68,1.51,2.04,2.65
			C56.63,218.56,56.74,218.75,56.85,218.92z"/>
		<path d="M104.42,115.17c-0.03,0.06,0.03,0.17,0.05,0.27c0.45,0.09,0.6-0.3,0.86-0.52c0-0.01,0-0.01,0-0.02
			c-0.01-0.01-0.03-0.02-0.04-0.03c0.02-0.01,0.03-0.01,0.05-0.02c0.01-0.18,0.06-0.36,0.24-0.46c0.08-0.04,0.19-0.02,0.28-0.02
			c-0.01,0.09,0.01,0.22-0.03,0.25c-0.15,0.09-0.32,0.15-0.49,0.23c0,0.02,0,0.03,0,0.05c0.2,0.14,0.43,0.25,0.58,0.43
			c0.51,0.59,1.08,0.75,1.8,0.42c0.33-0.15,0.7-0.24,1.06-0.17c0.81,0.16,1.54-0.09,2.28-0.35c0.88-0.31,1.77-0.61,2.66-0.87
			c0.54-0.16,1.07-0.34,1.67-0.29c0.79,0.07,1.16-0.38,1.01-1.11c-0.06-0.3-0.2-0.59-0.29-0.89c-0.1-0.34-0.3-0.53-0.65-0.56
			c-0.31-0.03-0.64-0.18-0.91-0.11c-1.41,0.38-2.82,0.53-4.27,0.3c-0.05-0.01-0.1,0.01-0.15,0.02c-1.08,0.09-2.17,0.16-3.25,0.27
			c-0.63,0.07-1.2,0.32-1.67,0.77c-0.17,0.15-0.19,0.36-0.19,0.57c0-0.01-0.01-0.01-0.02-0.02
			C104.56,113.84,104.77,114.59,104.42,115.17z"/>
		<path d="M105.28,114.87c0.01,0.01,0.03,0.02,0.04,0.03c0-0.02,0-0.03,0-0.05C105.31,114.86,105.3,114.86,105.28,114.87z"/>
		<path d="M66.72,225.88c0.08-0.18,0.08-0.41,0.09-0.61c0.01-0.5-0.1-0.94-0.68-1.07c-0.71-0.16-1.16-0.67-1.62-1.17
			c-0.31-0.34-0.6-0.7-0.9-1.05c-0.1,0.02-0.2,0.04-0.31,0.06c0.22,0.52,0.03,1.02,0.06,1.54c0.01,0.16,0.01,0.38-0.16,0.38
			c-0.69-0.01-0.76,0.64-1.1,0.99c-0.36,0.37-0.69,0.77-0.96,1.22c-0.27,0.46-0.18,1.05-0.48,1.45c-1.11,1.43-0.05,2.64,0.36,3.91
			c0.07,0.21,0.44,0.26,0.71,0.18c0.18-0.05,0.14-0.24,0.13-0.4c-0.01-0.15-0.03-0.31-0.01-0.47c0.08-0.51,0.44-0.72,0.9-0.55
			c0.14,0.06,0.27,0.17,0.41,0.23c0.63,0.28,0.81,0.24,1.11-0.36c0.3-0.6,0.61-1.16,1.07-1.68
			C65.99,227.74,66.32,226.78,66.72,225.88z"/>
		<path d="M86.73,153.88c-0.83-0.74-1.71-1.36-3.11-1.35c-0.25,0.01-0.71,0.08-1.13,0.33c-0.7,0.43-0.79,1.28-0.21,1.86
			c0.27,0.26,0.58,0.44,0.95,0.5c0.36,0.05,0.72,0.08,1.09,0.11c0.72,0.06,1.31,0.25,1.49,1.1c0.1,0.47,0.51,0.64,0.97,0.57
			c0.51-0.08,1.02-0.18,1.53-0.29c0.25-0.06,0.5-0.15,0.61-0.42c0.09-0.21-0.13-0.6-0.46-0.74c-0.23-0.1-0.49-0.15-0.74-0.21
			c-0.25-0.06-0.54-0.05-0.75-0.17c-0.29-0.17-0.07-0.47-0.04-0.71C86.97,154.22,86.89,154.02,86.73,153.88z"/>
		<path d="M149.76,130.04c0.45,1.45,0.55,2.96,0.6,4.47c0.02,0.61,0.07,1.22,0.11,1.84c0.12,0,0.23,0,0.35,0
			c0.26-0.89,0.44-1.81,0.29-2.74c-0.31-1.85-0.43-3.71-0.41-5.59c0-0.31-0.03-0.62-0.08-0.93c-0.02-0.15-0.09-0.29-0.16-0.43
			c-0.14-0.27-0.54-0.38-0.81-0.24c-0.62,0.33-0.85,0.86-0.63,1.58C149.23,128.69,149.55,129.35,149.76,130.04z"/>
		<path d="M99.65,154.18c0.62,0.03,0.94-0.69,0.64-1.26c-0.4-0.74-1.08-0.9-1.94-0.89c-0.79-0.05-1.49,0.38-2.16,0.89
			c-0.39,0.3-0.35,0.65,0.1,0.81C97.37,154.14,98.52,154.12,99.65,154.18z"/>
		<path d="M141.79,140.18c0.07,0.19,0.17,0.41,0.42,0.37c0.13-0.02,0.26-0.15,0.35-0.27c0.59-0.82,0.52-1.87,0.95-2.75
			c0.18-0.37-0.01-0.72-0.35-0.91c-0.41-0.22-0.83-0.16-1.12,0.17c-0.4,0.45-0.52,0.99-0.53,1.62
			C141.53,138.98,141.58,139.6,141.79,140.18z"/>
		<path d="M126.07,114.86c-0.32-0.47-0.53-0.76-0.72-1.05c-0.15-0.22-0.33-0.39-0.59-0.46c-0.79-0.22-1.58-0.46-2.37-0.66
			c-0.56-0.14-0.66,0-0.61,0.68c0.02,0.24,0.11,0.43,0.34,0.41c0.56-0.05,0.98,0.22,1.4,0.52C124.22,114.8,125,114.98,126.07,114.86
			z"/>
		<path d="M83.24,263.68c-0.11-0.11-0.24-0.2-0.35-0.3c0,0,0.12,0.02,0.12,0.02c-0.67-0.21-1.19,0.01-1.64,0.52
			c-0.21,0.24-0.22,0.47,0.03,0.64c0.71,0.47,1.42,0.92,2.13,1.38C84.19,264.61,84.19,264.6,83.24,263.68z"/>
		<path d="M83.53,265.94c0,0,0.05,0.02,0.05,0.02C83.57,265.95,83.55,265.94,83.53,265.94C83.53,265.94,83.53,265.94,83.53,265.94z"
			/>
		<path d="M86.23,178.95c-0.08,0.32,0.13,0.67,0.43,0.72c0.15,0.03,0.31,0.06,0.46,0.03c0.84-0.12,1.64,0,2.45,0.27
			c0.71,0.24,1.41,0.09,2.11-0.27c-0.44-0.04-0.89-0.03-1.31-0.14c-0.44-0.12-0.84-0.41-1.29-0.53c-0.75-0.21-1.51-0.36-2.27-0.49
			C86.53,178.5,86.3,178.65,86.23,178.95z"/>
		<path d="M103.81,112.74c-0.51,0.06-0.86,0.32-1.04,0.81c-0.11,0.29-0.33,0.35-0.63,0.27c-0.07-0.02-0.21,0.04-0.26,0.11
			c-0.28,0.38-0.48,0.8-0.54,1.28c-0.02,0.18,0.11,0.26,0.27,0.33c0.3,0.13,0.58,0.26,0.8-0.13c0.59-1.03,1.52-1.65,2.58-2.11
			C104.69,112.91,104.33,112.67,103.81,112.74z"/>
		<path d="M105,113.28c0,0-0.01,0-0.01,0.01c0,0,0,0,0.01,0.01C105,113.29,105,113.28,105,113.28z"/>
		<path d="M105.01,113.31c0,0-0.01-0.03-0.01-0.03c0,0-0.01,0.01-0.01,0.01C105,113.3,105,113.3,105.01,113.31z"/>
		<path d="M94.22,290.54c0.66-1.68,0.79-5.48,0.24-10.3c-0.21,1.57-0.16,3.17-0.12,4.77c0.03,1.5,0.08,3-0.2,4.49
			C94.07,289.84,93.96,290.21,94.22,290.54z"/>
		<path d="M78.58,154.24c-0.16-0.2-0.38-0.35-0.59-0.5c-0.07-0.05-0.19-0.05-0.29-0.07c-0.05,0.08-0.13,0.16-0.14,0.25
			c-0.01,0.1,0.02,0.21,0.06,0.3c0.63,1.27,3.08,2.72,4.49,2.67c0.04,0,0.12-0.05,0.12-0.08c0.01-0.09,0.01-0.23-0.04-0.27
			c-0.17-0.12-0.35-0.22-0.54-0.29C80.46,155.84,79.39,155.25,78.58,154.24z"/>
		<path d="M116.54,224.24c-0.39-0.07-0.68,0.13-0.57,0.47c0.25,0.79,0.11,1.46-0.42,2.06c0.54,0.2,0.99,0.15,1.26-0.5
			c0.12-0.28,0.35-0.51,0.47-0.79C117.53,224.9,117.19,224.36,116.54,224.24z"/>
		<path d="M115.47,226.78c0.02,0.03,0.03,0.06,0.03,0.06c0.02-0.02,0.03-0.05,0.06-0.08c-0.04-0.01-0.08-0.03-0.12-0.04
			C115.44,226.72,115.45,226.75,115.47,226.78z"/>
		<path d="M83.78,263.52c0.07,0.01,0.17-0.09,0.24-0.16c0.02-0.02,0.01-0.13-0.01-0.14c-0.58-0.39-1.17-0.78-1.77-1.17
			c-0.02-0.02-0.12,0.03-0.13,0.06c-0.03,0.09-0.07,0.23-0.03,0.28c0.3,0.34,0.62,0.67,0.93,1c0,0-0.12-0.02-0.12-0.02
			C83.18,263.43,83.48,263.49,83.78,263.52z"/>
		<path d="M88.14,294.47c0.41,0.28,0.84,0.55,1.25,0.82c0.04-0.09,0.09-0.18,0.13-0.28c-0.61-0.47-1.21-0.95-1.82-1.42
			c-0.12-0.09-0.29-0.15-0.38,0.03c-0.03,0.06,0.03,0.21,0.1,0.27C87.65,294.1,87.89,294.3,88.14,294.47z"/>
		<path d="M114.24,225.68c-0.21,0.05-0.4,0.18-0.42,0.4c-0.03,0.33,0.23,0.43,0.5,0.44c0.13,0.01,0.27-0.02,0.4-0.04
			c0.02-0.14,0.05-0.28,0.04-0.41C114.73,225.77,114.55,225.6,114.24,225.68z"/>
		<path d="M114.73,226.48c0,0.02-0.01,0.03-0.01,0.05c0,0,0.07-0.06,0.07-0.06C114.77,226.47,114.75,226.48,114.73,226.48z"/>
		<path d="M68.78,234.42c0.01,0.01,0.03,0.01,0.04,0.01c0,0-0.06-0.1-0.06-0.1C68.77,234.36,68.78,234.39,68.78,234.42z"/>
		<path d="M67.93,234.38c0.03,0.28,0.39,0.56,0.68,0.48c0.22-0.06,0.21-0.25,0.17-0.44c-0.22-0.08-0.45-0.17-0.68-0.23
			C68.06,234.18,67.93,234.32,67.93,234.38z"/>
		<path d="M69.4,233.98c0-0.08-0.22-0.25-0.31-0.24c-0.38,0.07-0.33,0.34-0.28,0.59C69.08,234.34,69.4,234.41,69.4,233.98z"/>
		<path d="M68.83,234.43c0-0.03-0.01-0.06-0.02-0.1c-0.02,0-0.03,0-0.05,0C68.76,234.33,68.83,234.43,68.83,234.43z"/>
		<path d="M133.65,212.91c-0.03-0.04-0.05-0.09-0.09-0.11c-0.04-0.02-0.11-0.02-0.15,0c-0.33,0.19-0.55,0.46-0.59,0.84
			c-0.01,0.06,0.12,0.21,0.16,0.2C133.31,213.77,133.64,213.28,133.65,212.91z"/>
		<path d="M81.93,260.84c-0.1,0.13,0.01,0.28,0.13,0.37c0.12,0.09,0.25,0.16,0.38,0.22c0.27,0.11,0.42-0.03,0.38-0.38
			c-0.01-0.1-0.06-0.19-0.09-0.28c-0.14-0.03-0.28-0.07-0.42-0.06C82.18,260.71,82.01,260.75,81.93,260.84z"/>
		<path d="M82.76,260.77l-0.02,0c0,0,0,0,0,0C82.74,260.77,82.75,260.77,82.76,260.77L82.76,260.77z"/>
		<path d="M119.9,122.27c0.37,0.41,0.82,0.66,1.39,0.67C120.91,122.57,120.48,122.29,119.9,122.27z"/>
		<path d="M114.83,226.76c0.05,0.19,0.1,0.43,0.34,0.41c0.21-0.01,0.24-0.19,0.26-0.37c-0.21-0.08-0.42-0.17-0.63-0.25
			C114.81,226.63,114.82,226.7,114.83,226.76z"/>
		<path d="M114.72,226.53c0.03,0.01,0.05,0.02,0.08,0.03c0-0.03-0.01-0.06-0.02-0.09C114.79,226.47,114.72,226.53,114.72,226.53z"/>
		<path d="M115.43,226.81c0.02,0.01,0.05,0.02,0.07,0.03c0,0-0.02-0.03-0.03-0.06c-0.02-0.03-0.03-0.06-0.03-0.06
			C115.44,226.75,115.43,226.78,115.43,226.81z"/>
		<path d="M108.5,235.11c0.01,0.16,0.11,0.3,0.27,0.3c0.18,0,0.23-0.15,0.26-0.31c-0.02-0.17-0.12-0.28-0.29-0.29
			C108.57,234.81,108.49,234.94,108.5,235.11z"/>
		<path d="M118.24,114.26c0.13-0.06,0.32-0.13,0.24-0.3c-0.05-0.1-0.25-0.15-0.39-0.18c-0.09-0.02-0.2,0.02-0.28,0.07
			c-0.08,0.05-0.17,0.15-0.17,0.23c0.01,0.17,0.15,0.24,0.31,0.26C118.05,114.32,118.15,114.3,118.24,114.26z"/>
		<path d="M116.92,0.41c0.15-0.03,0.29-0.14,0.23-0.31c-0.02-0.06-0.17-0.12-0.25-0.1c-0.44,0.1-0.9,0.13-1.28,0.39
			C116.06,0.59,116.49,0.51,116.92,0.41z"/>
		<path d="M115.63,0.39c-0.02-0.01-0.03-0.01-0.05-0.02c0.01,0.01,0.02,0.02,0.03,0.03C115.61,0.39,115.62,0.39,115.63,0.39z"/>
		<path d="M115.58,0.37C115.58,0.37,115.58,0.37,115.58,0.37l0.03,0.03c0,0,0,0,0,0C115.6,0.39,115.59,0.38,115.58,0.37z"/>
		<path d="M133.52,209.39c-0.01-0.01-0.02-0.01-0.02-0.01c0.01,0.03,0.02,0.05,0.03,0.08C133.52,209.44,133.52,209.42,133.52,209.39
			z"/>
		<path d="M133.12,211.1c0.64-0.87,0.66-0.91,0.4-1.64C133.57,210,133.06,210.43,133.12,211.1z"/>
		<path d="M113.61,233.24c-0.05,0.15,0.01,0.31,0.18,0.29c0.11-0.01,0.22-0.14,0.32-0.21c-0.07-0.11-0.1-0.22-0.16-0.24
			C113.8,233.03,113.66,233.09,113.61,233.24z"/>
		<path d="M123.66,1.09c-0.02-0.04-0.19-0.06-0.27-0.03c-0.14,0.07-0.27,0.16-0.39,0.25c0.15,0.01,0.3,0.02,0.45,0.01
			C123.57,1.31,123.76,1.3,123.66,1.09z"/>
		<path d="M123,1.31c-0.04,0-0.09,0-0.13,0c0,0,0.05,0.06,0.04,0.06C122.94,1.35,122.97,1.33,123,1.31z"/>
		<path d="M62.41,119.53c-0.06-0.06-0.12-0.18-0.18-0.18c-0.4-0.01-0.81,0-1.21,0.01c0.36,0.21,0.72,0.37,1.14,0.33
			C62.25,119.67,62.33,119.58,62.41,119.53z"/>
		<path d="M61.01,119.34C61,119.34,61.01,119.35,61.01,119.34c0.01,0.01,0.01,0.01,0.01,0.01
			C61.02,119.35,61.01,119.35,61.01,119.34z"/>
		<path d="M68.05,104.95c0.02,0.04,0.08,0.09,0.11,0.09c0.26-0.02,0.28-0.24,0.33-0.43c0.01-0.05,0-0.1,0-0.15
			c-0.03-0.04-0.05-0.12-0.08-0.12c-0.09,0-0.22-0.01-0.27,0.05C68,104.55,67.96,104.74,68.05,104.95z"/>
		<path d="M132.46,209.95c0.04-0.16,0.03-0.31-0.16-0.33c-0.06-0.01-0.17,0.1-0.2,0.18c-0.07,0.15-0.03,0.3,0.16,0.32
			C132.32,210.13,132.39,210.01,132.46,209.95z"/>
		<path d="M121.89,217.13c-0.12,0.08-0.23,0.18-0.3,0.3c-0.06,0.1,0.03,0.21,0.14,0.18c0.19-0.05,0.35-0.16,0.38-0.39
			C122.08,217.11,121.99,217.06,121.89,217.13z"/>
		<path d="M100.62,114.08c-0.07,0.04-0.19,0.08-0.2,0.14c-0.01,0.08,0.06,0.17,0.09,0.25c0.07-0.04,0.15-0.09,0.22-0.13
			C100.69,114.25,100.66,114.16,100.62,114.08z"/>
		<path d="M120.73,228.13c-0.06,0.12-0.01,0.21,0.12,0.22c0.04,0,0.11-0.03,0.13-0.07c0.06-0.12,0.01-0.2-0.12-0.22
			C120.82,228.08,120.75,228.1,120.73,228.13z"/>
		<path d="M119.14,224.48c-0.03,0.02-0.05,0.08-0.05,0.12c0.02,0.17,0.29,0.38,0.4,0.3c0.03-0.02,0.04-0.08,0.05-0.12
			C119.52,224.62,119.24,224.4,119.14,224.48z"/>
		<path d="M67.35,235.28c0.06,0.04,0.18,0.01,0.27,0.01c0-0.09,0.02-0.21-0.02-0.27c-0.05-0.06-0.2-0.13-0.25-0.1
			C67.17,235.03,67.22,235.19,67.35,235.28z"/>
		<path d="M131.24,216.52c0.07,0.01,0.16-0.08,0.23-0.12c-0.04-0.08-0.07-0.2-0.13-0.23c-0.07-0.03-0.23-0.02-0.26,0.03
			C131,216.35,131.07,216.49,131.24,216.52z"/>
		<path d="M82.45,259.87c-0.04,0.09-0.13,0.2-0.1,0.25c0.11,0.21,0.25,0.41,0.38,0.61c-0.01-0.25-0.01-0.49-0.04-0.73
			C82.68,259.95,82.53,259.91,82.45,259.87z"/>
		<path d="M82.73,260.73c0,0.01,0,0.02,0,0.03c0.01,0.01,0.02,0.01,0.02,0.01l0,0C82.75,260.76,82.74,260.74,82.73,260.73z"/>
		<polygon points="82.76,260.77 82.76,260.77 82.76,260.77 82.76,260.77 		"/>
		<path d="M64.37,267.61c0.02,0.12,0.1,0.18,0.22,0.14c0.03-0.01,0.05-0.08,0.07-0.12c-0.03-0.12-0.11-0.18-0.22-0.14
			C64.4,267.5,64.36,267.57,64.37,267.61z"/>
		<path d="M144.15,205.05c0.02-0.08-0.02-0.22-0.09-0.26c-0.19-0.14-0.39-0.11-0.53,0.09c-0.05,0.08-0.08,0.18-0.11,0.27
			c0.08,0.04,0.15,0.09,0.24,0.12C143.89,205.34,144.08,205.29,144.15,205.05z"/>
		<polygon points="143.38,205.12 143.42,205.17 143.38,205.12 		"/>
		<path d="M143.43,205.15c-0.01-0.01-0.02-0.01-0.04-0.02c0.01,0.01,0.02,0.03,0.03,0.04C143.42,205.16,143.42,205.15,143.43,205.15
			z"/>
		<path d="M143.42,205.17c-0.01-0.01-0.02-0.03-0.03-0.04c0,0,0,0-0.01,0L143.42,205.17z"/>
		<path d="M88.39,177.01c0.04-0.12-0.01-0.2-0.13-0.23c-0.04,0.02-0.11,0.04-0.13,0.07c-0.04,0.12,0.01,0.21,0.13,0.23
			C88.31,177.09,88.38,177.05,88.39,177.01z"/>
		<path d="M94.16,276.94c0,0.2,0,0.4,0,0.59c0.04,0,0.07,0,0.1,0c0-0.2,0-0.4,0-0.59C94.22,276.94,94.16,276.94,94.16,276.94z"/>
		<path d="M119.62,111.16c-0.13,0-0.22-0.01-0.32,0c-0.04,0-0.07,0.05-0.1,0.08c0.06,0.06,0.12,0.16,0.18,0.16
			c0.18-0.01,0.37-0.05,0.55-0.08c-0.02-0.04-0.03-0.09-0.05-0.1C119.78,111.18,119.68,111.17,119.62,111.16z"/>
		<path d="M130.2,208.01c-0.04,0.11,0.01,0.21,0.12,0.2c0.06-0.01,0.12-0.12,0.17-0.18c-0.02-0.12-0.09-0.16-0.2-0.12
			C130.25,207.93,130.21,207.97,130.2,208.01z"/>
		<path d="M132.02,215.26c0.07,0.1,0.15,0.09,0.23,0c0.01-0.05,0.03-0.11,0.01-0.13c-0.07-0.1-0.16-0.1-0.23,0
			C132.02,215.16,132,215.23,132.02,215.26z"/>
		<path d="M55.97,220.43c0.02,0.12,0.1,0.17,0.21,0.13c0.03-0.01,0.05-0.08,0.07-0.12c-0.03-0.12-0.1-0.17-0.21-0.13
			C56,220.33,55.97,220.39,55.97,220.43z"/>
		<path d="M117.01,228.89c-0.01,0.04-0.01,0.1,0.01,0.13c0.08,0.08,0.15,0.06,0.2-0.06c0-0.04,0.01-0.11-0.01-0.13
			C117.13,228.75,117.05,228.77,117.01,228.89z"/>
		<path d="M110.43,233.52c0.08,0.05,0.16,0.14,0.25,0.15c0.14,0.01,0.19-0.11,0.09-0.2c-0.06-0.06-0.18-0.06-0.28-0.07
			C110.48,233.4,110.45,233.48,110.43,233.52z"/>
		<path d="M87.2,294.98c0.11,0.05,0.2-0.01,0.16-0.13c-0.02-0.08-0.13-0.13-0.21-0.21c-0.09-0.03-0.18,0.03-0.14,0.15
			C87.03,294.87,87.12,294.95,87.2,294.98z"/>
		<path class="st0" d="M92.3,353.58c0.23,0.14,0.45,0.11,0.68,0.01C92.76,353.47,92.53,353.47,92.3,353.58z"/>
		<path class="st0" d="M92.72,322.22c0.03-0.1,0.1-0.19,0.12-0.28c0.06-0.3-0.2-0.78-0.47-0.91c-0.2-0.09-0.54,0.13-0.71,0.47
			c-0.48,0.9-0.25,1.68,0.36,2.46C92.42,323.39,92.54,322.79,92.72,322.22z"/>
		<path class="st0" d="M90.05,325.54c-1.61-0.53-1.61-0.53-2.72-0.27C88.35,325.36,89.09,325.75,90.05,325.54z"/>
		<path class="st0" d="M98.99,325.8C98.99,325.8,98.99,325.8,98.99,325.8c-0.44-0.03-0.89-0.05-1.45-0.08
			c0.16,0.08,0.19,0.12,0.23,0.12C98.17,325.83,98.58,325.81,98.99,325.8z"/>
		<polygon class="st0" points="98.99,325.8 98.99,325.8 98.99,325.8 		"/>
	</g>
</g>
<g id="Layer_2">
</g>
</svg>
